<svg width="7" height="14" viewBox="0 0 7 14" fill="none" xmlns="http://www.w3.org/2000/svg">
<path d="M0.682787 13.5031C0.540287 13.5031 0.397787 13.4506 0.285287 13.3381C0.0677869 13.1206 0.0677869 12.7606 0.285287 12.5431L5.17529 7.65313C5.53529 7.29313 5.53529 6.70813 5.17529 6.34812L0.285287 1.45813C0.0677869 1.24063 0.0677869 0.880625 0.285287 0.663125C0.502787 0.445625 0.862786 0.445625 1.08029 0.663125L5.97029 5.55312C6.35279 5.93562 6.57029 6.45313 6.57029 7.00063C6.57029 7.54813 6.36029 8.06563 5.97029 8.44813L1.08029 13.3381C0.967786 13.4431 0.825287 13.5031 0.682787 13.5031Z" fill="#CA4A28"/>
</svg>
