<svg width="16" height="17" viewBox="0 0 16 17" fill="none" xmlns="http://www.w3.org/2000/svg">
<path d="M10.4446 16.6873H5.55462C1.87212 16.6873 0.297119 15.1123 0.297119 11.4298V11.3323C0.297119 8.00234 1.60962 6.39734 4.54962 6.11984C4.84962 6.09734 5.13462 6.32234 5.16462 6.62984C5.19462 6.93734 4.96962 7.21484 4.65462 7.24484C2.29962 7.46234 1.42212 8.57234 1.42212 11.3398V11.4373C1.42212 14.4898 2.50212 15.5698 5.55462 15.5698H10.4446C13.4971 15.5698 14.5771 14.4898 14.5771 11.4373V11.3398C14.5771 8.55734 13.6846 7.44734 11.2846 7.24484C10.9771 7.21484 10.7446 6.94484 10.7746 6.63734C10.8046 6.32984 11.0671 6.09734 11.3821 6.12734C14.3671 6.38234 15.7021 7.99484 15.7021 11.3473V11.4448C15.7021 15.1123 14.1271 16.6873 10.4446 16.6873Z" fill="white"/>
<path d="M7.99927 11.7225C7.69177 11.7225 7.43677 11.4675 7.43677 11.16V1.5C7.43677 1.1925 7.69177 0.9375 7.99927 0.9375C8.30677 0.9375 8.56177 1.1925 8.56177 1.5V11.16C8.56177 11.475 8.30677 11.7225 7.99927 11.7225Z" fill="white"/>
<path d="M7.99915 12.5624C7.85665 12.5624 7.71415 12.5099 7.60165 12.3974L5.08915 9.88488C4.87165 9.66738 4.87165 9.30738 5.08915 9.08988C5.30665 8.87238 5.66665 8.87238 5.88415 9.08988L7.99915 11.2049L10.1141 9.08988C10.3316 8.87238 10.6917 8.87238 10.9092 9.08988C11.1266 9.30738 11.1266 9.66738 10.9092 9.88488L8.39665 12.3974C8.28415 12.5099 8.14165 12.5624 7.99915 12.5624Z" fill="white"/>
</svg>
