<svg version="1.1" id="Layer_1" xmlns="http://www.w3.org/2000/svg" xmlns:xlink="http://www.w3.org/1999/xlink" x="0px"
	y="0px" width="100%" viewBox="0 0 715 707" enable-background="new 0 0 715 707" xml:space="preserve">
	<defs>
		<clipPath id="shape">
			<path d="
M378.000000,1.000004 
	C401.687561,1.000000 425.375122,1.000000 449.218079,1.371620 
	C450.544098,2.162090 451.686554,2.815980 452.890137,2.960446 
	C459.207520,3.718709 465.636322,3.866451 471.851532,5.104303 
	C501.140228,10.937565 526.646606,24.036377 547.833008,45.308613 
	C573.349121,70.927940 598.956177,96.456657 624.524475,122.023972 
	C631.475891,128.975174 638.495972,135.859283 645.366882,142.889221 
	C655.388977,153.143295 666.424438,162.649704 675.044678,173.983246 
	C696.395203,202.053864 709.934937,233.696976 714.075317,269.030853 
	C714.159851,269.752502 715.334167,270.346466 716.000000,271.000000 
	C716.000000,305.020905 716.000000,339.041779 715.635010,373.229919 
	C714.852295,374.067261 714.175598,374.694397 714.056274,375.414032 
	C712.624878,384.043518 711.892212,392.840027 709.787476,401.296906 
	C704.030701,424.427643 695.778015,446.645203 683.961060,467.464386 
	C672.537048,487.591370 661.325745,507.839050 649.995667,528.019470 
	C636.324890,552.368896 621.748535,576.081299 604.535522,598.194031 
	C591.030151,615.543884 576.264526,631.646790 559.029907,645.096313 
	C544.172180,656.690918 528.379761,667.227661 512.291443,677.073425 
	C486.721527,692.721802 458.793243,702.273193 428.969147,706.074463 
	C428.242767,706.167114 427.653320,707.334106 427.000000,708.000000 
	C407.312439,708.000000 387.624878,708.000000 367.773987,707.636597 
	C362.285095,706.182190 356.992645,704.879089 351.627625,704.040527 
	C335.915955,701.584778 320.173950,699.323486 304.446564,696.968018 
	C289.019409,694.657532 273.539825,692.639526 258.185028,689.918762 
	C240.860992,686.849121 223.454926,683.899963 206.436493,679.528259 
	C180.938614,672.978394 155.781403,665.112793 130.415085,658.036926 
	C111.681206,652.811157 95.445152,643.582764 82.521706,628.961792 
	C75.247971,620.732727 68.255768,612.249390 61.285973,603.758118 
	C42.502811,580.874573 26.749435,556.160645 15.852160,528.493164 
	C9.794309,513.112671 4.925766,497.445251 2.923581,480.968811 
	C2.835666,480.245300 1.665854,479.653259 1.000000,479.000000 
	C1.000000,458.979095 1.000000,438.958221 1.375821,418.771301 
	C2.501024,414.180847 3.429481,409.777924 3.965261,405.327759 
	C5.408292,393.341858 6.269214,381.270966 8.133617,369.354675 
	C10.330420,355.313782 13.012826,341.327972 16.073166,327.448059 
	C20.439276,307.645905 24.666922,287.770660 30.196140,268.279083 
	C36.100647,247.464539 42.788708,226.812820 50.359901,206.547760 
	C57.466339,187.526672 65.083855,168.536743 74.440430,150.555008 
	C87.244553,125.947670 107.101372,107.486320 131.959976,95.197990 
	C153.019760,84.787552 174.663300,75.544464 196.154572,66.024216 
	C219.221863,55.805828 242.322693,45.652248 265.579468,35.876190 
	C283.133850,28.497149 300.760284,21.197639 318.714996,14.888206 
	C337.050812,8.444847 356.148651,4.827189 375.533783,2.924769 
	C376.410370,2.838739 377.180359,1.666385 378.000000,1.000004 
z" />
		</clipPath>
	</defs>

	<!-- Forme noire pour le masque luminance CSS -->
	<path fill="#000000" d="
M378.000000,1.000004 
	C401.687561,1.000000 425.375122,1.000000 449.218079,1.371620 
	C450.544098,2.162090 451.686554,2.815980 452.890137,2.960446 
	C459.207520,3.718709 465.636322,3.866451 471.851532,5.104303 
	C501.140228,10.937565 526.646606,24.036377 547.833008,45.308613 
	C573.349121,70.927940 598.956177,96.456657 624.524475,122.023972 
	C631.475891,128.975174 638.495972,135.859283 645.366882,142.889221 
	C655.388977,153.143295 666.424438,162.649704 675.044678,173.983246 
	C696.395203,202.053864 709.934937,233.696976 714.075317,269.030853 
	C714.159851,269.752502 715.334167,270.346466 716.000000,271.000000 
	C716.000000,305.020905 716.000000,339.041779 715.635010,373.229919 
	C714.852295,374.067261 714.175598,374.694397 714.056274,375.414032 
	C712.624878,384.043518 711.892212,392.840027 709.787476,401.296906 
	C704.030701,424.427643 695.778015,446.645203 683.961060,467.464386 
	C672.537048,487.591370 661.325745,507.839050 649.995667,528.019470 
	C636.324890,552.368896 621.748535,576.081299 604.535522,598.194031 
	C591.030151,615.543884 576.264526,631.646790 559.029907,645.096313 
	C544.172180,656.690918 528.379761,667.227661 512.291443,677.073425 
	C486.721527,692.721802 458.793243,702.273193 428.969147,706.074463 
	C428.242767,706.167114 427.653320,707.334106 427.000000,708.000000 
	C407.312439,708.000000 387.624878,708.000000 367.773987,707.636597 
	C362.285095,706.182190 356.992645,704.879089 351.627625,704.040527 
	C335.915955,701.584778 320.173950,699.323486 304.446564,696.968018 
	C289.019409,694.657532 273.539825,692.639526 258.185028,689.918762 
	C240.860992,686.849121 223.454926,683.899963 206.436493,679.528259 
	C180.938614,672.978394 155.781403,665.112793 130.415085,658.036926 
	C111.681206,652.811157 95.445152,643.582764 82.521706,628.961792 
	C75.247971,620.732727 68.255768,612.249390 61.285973,603.758118 
	C42.502811,580.874573 26.749435,556.160645 15.852160,528.493164 
	C9.794309,513.112671 4.925766,497.445251 2.923581,480.968811 
	C2.835666,480.245300 1.665854,479.653259 1.000000,479.000000 
	C1.000000,458.979095 1.000000,438.958221 1.375821,418.771301 
	C2.501024,414.180847 3.429481,409.777924 3.965261,405.327759 
	C5.408292,393.341858 6.269214,381.270966 8.133617,369.354675 
	C10.330420,355.313782 13.012826,341.327972 16.073166,327.448059 
	C20.439276,307.645905 24.666922,287.770660 30.196140,268.279083 
	C36.100647,247.464539 42.788708,226.812820 50.359901,206.547760 
	C57.466339,187.526672 65.083855,168.536743 74.440430,150.555008 
	C87.244553,125.947670 107.101372,107.486320 131.959976,95.197990 
	C153.019760,84.787552 174.663300,75.544464 196.154572,66.024216 
	C219.221863,55.805828 242.322693,45.652248 265.579468,35.876190 
	C283.133850,28.497149 300.760284,21.197639 318.714996,14.888206 
	C337.050812,8.444847 356.148651,4.827189 375.533783,2.924769 
	C376.410370,2.838739 377.180359,1.666385 378.000000,1.000004 
z" />
</svg>