<svg width="295" height="371" viewBox="0 0 295 371" fill="none" xmlns="http://www.w3.org/2000/svg">
<path d="M281.283 360.425C278.893 362.688 276.258 364.677 273.424 366.357C266.872 370.063 259.131 371.135 251.757 369.358C243.012 367.288 234.179 365.626 225.375 363.843C221.96 363.146 218.486 362.715 215.09 361.907C200.083 358.257 184.635 356.675 169.538 353.347C166.597 352.798 163.698 352.036 160.864 351.066C158.602 350.185 155.849 349.092 154.642 347.247C152.1 343.479 148.265 340.766 143.874 339.629C137.238 337.371 130.944 334.187 125.183 330.171C119.335 326.303 113.275 322.769 107.543 318.733C103.474 315.863 99.8731 312.324 95.953 309.232C89.2731 303.965 82.7141 298.686 77.6305 291.664C75.3867 288.967 72.5553 286.818 69.3577 285.385C67.3253 284.405 65.5199 283.007 64.0612 281.282C62.6026 279.558 61.5241 277.547 60.8973 275.383C60.2697 273.22 59.1707 271.218 57.6799 269.521C56.1891 267.824 54.3436 266.475 52.2766 265.571C50.675 264.835 49.2562 263.749 48.1259 262.394C46.9957 261.039 46.1832 259.45 45.7489 257.745C42.0971 244.45 34.2723 233.468 26.348 222.476C24.2981 219.63 22.346 216.728 20.4267 213.813C16.7802 208.377 14.6507 202.077 14.2609 195.573C14.0934 192.599 13.4408 189.632 13.2733 186.658C13.1523 182.146 11.7952 177.739 9.34957 173.918C4.25188 166.367 3.75149 157.941 4.79376 149.469C5.28527 144.552 5.01131 139.58 3.98165 134.729C2.38979 125.901 1.42485 117.007 0.348436 108.071C0.0966572 105.092 0.10906 102.1 0.385617 99.1295C0.873176 92.1871 1.54731 85.2088 2.10219 78.3095C2.39265 72.3365 3.8673 66.494 6.4408 61.1207C8.43018 57.127 9.99268 52.931 11.1026 48.6016C14.0489 37.5091 18.6788 27.1073 22.9627 16.5454C26.253 8.4244 32.0773 3.93575 40.4883 2.16359C47.9453 0.593556 55.2719 0.337476 62.5987 2.98103C67.2975 4.67278 71.9976 6.40857 76.5521 8.47737C78.3831 9.30856 80.0316 10.4984 81.3993 11.9758C82.767 13.4532 83.8255 15.1878 84.5117 17.0758C89.089 28.6811 90.292 40.294 84.7994 51.8447C81.5926 58.0522 80.42 65.1289 81.4462 72.0833C81.8788 76.0736 81.1917 80.093 79.4619 83.6903C77.9603 87.3407 76.8709 91.1501 75.6147 94.9069C73.1248 102.477 72.6085 110.577 74.1141 118.447C74.8429 121.859 75.0699 125.355 74.7877 128.822C74.1757 133.991 74.7192 138.657 77.9114 142.985C78.894 144.136 79.495 145.561 79.6301 147.06C79.3708 153.878 82.6614 159.417 85.3882 165.318C86.8254 168.349 86.7062 172.144 86.7097 175.584C86.6385 178.071 87.1075 180.551 88.0846 182.853C89.0616 185.154 90.5234 187.222 92.3694 188.914C95.3028 191.653 97.6919 194.92 99.4082 198.541C105.603 211.654 113.676 223.69 121.478 235.874C123.083 238.423 125.292 240.541 127.906 242.038C130.505 243.541 133.325 244.7 135.796 246.382C137.944 247.615 139.759 249.356 141.081 251.449C143.226 255.782 146.681 258.364 150.581 260.729C154.482 263.095 158.124 265.663 162.021 267.918C164.547 269.528 167.283 270.778 170.149 271.63C175.445 273.103 180.498 275.363 185.138 278.334C186.852 279.355 188.525 280.487 190.292 281.408C198.712 285.766 206.946 290.589 217.058 289.739C219.435 289.526 221.954 290.546 224.414 290.993C226.365 291.36 228.441 292.298 230.274 291.972C241.349 290.005 252.018 293.92 262.845 294.249C267.362 294.447 271.67 296.286 274.959 299.421C277.579 301.74 280.029 304.283 282.552 306.702C290.649 313.799 293.686 323.069 294.511 333.332C294.895 337.065 294.474 340.828 293.277 344.367C292.08 347.906 290.133 351.138 287.57 353.846C286.434 355.098 285.038 356.509 281.283 360.425ZM83.9971 234.731L83.9899 234.875C83.5789 234.783 83.16 234.734 82.7398 234.729C82.4538 234.755 82.197 235.046 81.9371 235.226L83.9971 234.731ZM155.955 312.123L155.96 311.914C156.87 311.896 157.776 311.794 158.665 311.607C159.889 311.192 160.099 310.383 159.245 309.801C159.064 309.628 158.369 310.013 158.023 310.283C157.256 310.879 156.612 311.529 155.923 312.157L155.955 312.123ZM54.8732 178.091C54.9165 173.515 54.0178 169.174 49.0074 167.377C46.1572 166.362 45.3333 162.759 42.1486 162.433C41.9679 162.548 41.8133 162.699 41.6947 162.877C41.5761 163.056 41.496 163.257 41.4594 163.469C45.1397 169.145 48.153 175.449 55.0936 178.088L54.8732 178.091ZM40.8193 123.336C36.7628 125.052 33.0022 127.117 30.9431 131.371C33.7715 133.224 36.6484 133.168 39.5449 133.025C40.0339 132.975 40.5062 132.824 40.9317 132.581C41.3572 132.339 41.7266 132.01 42.0168 131.616C42.3069 131.222 42.5113 130.771 42.6171 130.291C42.7228 129.812 42.7275 129.315 42.6311 128.832C42.127 126.969 41.4887 125.144 40.721 123.37L41.1992 122.283C41.5185 121.021 41.1528 122.195 40.7871 123.37L40.8193 123.336ZM80.6237 250.483C79.6088 254.192 78.582 257.868 77.6106 261.554C77.5037 262.03 77.5841 262.53 77.8352 262.951C78.3182 263.779 79.0245 264.457 79.8723 264.904C80.3284 265.033 80.8071 265.053 81.2701 264.964C81.733 264.875 82.1675 264.678 82.5384 264.389C83.3553 263.23 83.9834 261.948 84.4 260.59C85.9262 256.619 87.4895 255.691 90.6875 256.932C93.4179 258.004 96.1166 259.131 98.8673 260.136C99.6018 260.197 100.328 259.968 100.889 259.497C101.45 259.027 101.801 258.353 101.866 257.62C101.719 256.663 101.593 255.64 101.425 254.749C101.153 253.806 100.834 252.876 100.469 251.964C98.3975 246.24 97.109 245.477 92.0421 248.179C88.4425 250.076 84.9843 251.485 80.5915 250.516L80.6237 250.483ZM44.4519 90.0061C44.6644 90.532 44.8638 90.9811 45.0305 91.4416C45.4573 92.5595 46.3914 93.2618 47.2806 92.6969C47.6205 92.3723 47.8881 91.9797 48.0663 91.5442C48.2446 91.1086 48.3296 90.6396 48.3159 90.1672C48.2786 86.2869 48.5679 82.2472 45.8782 78.9811C44.9809 77.8615 43.7299 77.0791 42.3342 76.7644C41.3605 76.7394 40.4055 77.0097 39.5948 77.5398C38.7841 78.0699 38.1559 78.8348 37.7929 79.7339C37.4264 80.3751 37.3141 81.1328 37.4783 81.8584C37.6425 82.584 38.0712 83.2252 38.6805 83.6562C40.882 85.5738 43.5669 87.0099 44.4519 90.0061ZM249.898 327.348C249.524 328.191 248.71 329.108 248.84 329.856C249.09 331.04 249.602 332.155 250.34 333.119C251.078 334.084 252.022 334.871 253.102 335.424C253.448 335.533 253.812 335.57 254.171 335.533C254.53 335.495 254.877 335.383 255.189 335.204C255.501 335.025 255.772 334.783 255.985 334.494C256.198 334.204 256.348 333.873 256.426 333.521C256.544 332.095 256.546 330.66 256.433 329.232C256.25 326.908 254.933 325.925 252.609 326.424C251.682 326.662 250.776 326.971 249.898 327.348ZM219.304 330.961C218.912 332.254 218.666 333.589 218.572 334.941C218.579 335.613 219.522 336.216 220.125 336.924C220.726 336.297 221.816 335.839 221.963 335.142C222.153 333.754 222.138 332.342 221.918 330.953C221.889 330.711 221.239 330.302 220.788 330.342C220.337 330.383 219.97 330.675 219.304 330.961ZM30.0699 104.825C30.1111 106.075 30.2698 107.32 30.544 108.544C30.6279 108.796 32.2765 109.002 32.652 108.611C32.9258 108.418 33.1506 108.163 33.3086 107.868C33.4666 107.572 33.5536 107.243 33.5628 106.907C33.5719 106.57 33.5031 106.235 33.3616 105.928C33.22 105.621 33.0096 105.35 32.7469 105.136C32.3287 104.757 31.2866 104.96 30.0699 104.825ZM152.298 294.076C152.367 292.939 152.636 291.458 152.436 291.395C151.211 290.849 149.889 290.561 148.553 290.551C148.138 290.645 147.755 290.844 147.441 291.128C147.126 291.413 146.89 291.774 146.755 292.177C146.835 292.593 147.02 292.983 147.294 293.309C147.567 293.635 147.919 293.886 148.316 294.038C149.639 294.205 150.975 294.218 152.298 294.076ZM28.2122 146.815C28.563 147.151 28.9644 147.729 29.1289 147.694C29.9255 147.425 30.6828 147.054 31.382 146.59C31.4786 146.489 31.3365 145.709 31.0762 145.459C30.8159 145.209 30.1254 144.955 29.9091 145.113C29.2953 145.63 28.7277 146.2 28.2122 146.815ZM130.446 286.827C131.317 287.663 132.12 287.573 132.469 286.619C132.519 286.409 132.516 286.188 132.46 285.977C132.405 285.767 132.298 285.572 132.15 285.412C131.401 285.07 130.626 284.787 129.834 284.565L130.446 286.827ZM97.8097 274.65C98.0926 274.921 98.5341 275.345 98.7968 275.275C99.8385 275.049 100.127 274.273 99.5811 273.256C99.4073 272.939 98.9508 272.78 98.6244 272.532L97.8097 274.65ZM62.2935 203.269L63.4923 203.559C63.5944 202.754 63.6464 201.943 63.6481 201.131C63.6481 201.131 62.9045 200.955 62.5048 200.851L62.2935 203.269ZM54.3749 59.7437L55.4365 60.2676C55.5808 59.8906 55.9223 59.4664 55.8366 59.148C55.7509 58.8296 55.1653 58.7835 54.8186 58.6014L54.3749 59.7437ZM173.849 304.946C174.261 305.105 174.756 305.472 175.106 305.357C175.456 305.241 175.495 304.634 175.683 304.234C175.259 304.064 174.753 303.686 174.425 303.802C174.097 303.917 174.091 304.512 173.872 304.968L173.849 304.946Z" fill="#2E55FF" fill-opacity="0.6"/>
</svg>
