<svg width="115" height="209" viewBox="0 0 115 209" fill="none" xmlns="http://www.w3.org/2000/svg">
<path d="M57.9228 206.143C55.1997 205.413 52.4537 204.769 49.7705 203.959C47.8814 203.367 46.1305 202.401 44.6221 201.119C43.1138 199.836 41.8785 198.263 40.99 196.493C37.3816 189.537 33.2497 182.696 30.2012 175.488C26.5744 167.103 22.3303 159.319 15.6813 152.954C14.4289 151.796 13.4963 150.334 12.9729 148.71C12.4496 147.086 12.3532 145.353 12.6937 143.681C14.5988 133.235 11.7722 123.566 8.24702 113.985C7.07003 110.821 5.46382 107.761 4.37193 104.62C1.41379 96.6786 0.191238 88.1941 0.787099 79.7383C1.82421 69.06 1.82718 58.3603 5.46406 48.123C5.76341 47.037 5.98675 45.9313 6.13199 44.8142C7.33376 38.7634 7.54754 32.2471 10.0515 26.7826C12.5555 21.3181 17.337 16.8838 21.1261 12.001C24.9856 7.08619 30.4151 3.64782 36.5045 2.26214C47.5357 -0.484777 59.1642 0.511462 69.5648 5.09467C73.7524 6.8929 77.1724 10.1109 79.2236 14.1834C84.2936 23.6548 87.8737 33.8527 89.8379 44.4178C90.5023 48.8964 90.1924 53.4663 88.9295 57.8149C87.5144 63.8451 86.0914 69.8365 84.9054 75.9646C83.7038 80.9606 84.2602 86.2176 86.4808 90.8489C90.5048 98.5009 91.5536 106.908 93.3452 115.13C94.546 120.656 95.5732 126.081 99.6734 130.521C101.459 132.689 102.705 135.251 103.307 137.995C104.813 143.398 107.125 148.542 110.164 153.254C115.88 162.692 115.485 172.812 111.173 182.503C103.515 199.716 83.2569 213.37 61.0866 207.338L57.819 206.462L57.9228 206.143ZM73.1354 143.241L68.9756 145.559L64.8224 147.989L64.7372 147.966L68.8983 145.575L73.0008 143.132L73.1354 143.241ZM62.7112 129.93C59.8812 131.709 56.9331 133.385 56.0471 136.964C56.0537 137.206 56.1185 137.443 56.2357 137.656C56.353 137.868 56.5193 138.049 56.7209 138.183C56.9225 138.318 57.1535 138.402 57.3944 138.429C57.6353 138.456 57.8791 138.424 58.1053 138.337C61.0188 136.178 61.1907 132.608 62.5366 129.627L62.7112 129.93ZM45.8549 54.7093C45.8949 56.1261 45.8642 57.67 46.005 59.1868C46.0481 59.4427 46.1468 59.686 46.2947 59.8992C46.4425 60.1124 46.6356 60.2903 46.8601 60.4202C47.8434 60.9028 48.6898 60.3992 49.0185 59.1725C49.3388 57.6504 49.5455 56.1066 49.6361 54.5538C49.7229 54.2301 48.9405 53.4727 48.7259 53.5248C47.7388 53.8421 46.7788 54.2383 45.8549 54.7093ZM35.9577 134.74C35.1911 135.831 35.4327 136.699 36.6352 137.113C37.0607 137.227 37.9212 137.147 38.0191 136.917C38.2927 136.076 38.4821 135.209 38.5846 134.33L35.9577 134.74ZM34.8837 111.517C34.8584 110.999 35.0239 110.313 34.7553 110.022C33.9292 109.088 32.9934 109.312 32.2085 110.472C31.1904 112.025 30.9306 113.471 33.1116 113.909C33.469 114.005 34.2195 112.362 34.811 111.516L34.8837 111.517ZM60.2169 110.033L62.3304 108.408L60.1724 107.136C59.7574 107.88 59.3819 108.645 59.0476 109.428C59.4266 109.65 59.8169 109.852 60.2169 110.033ZM35.1626 87.397L33.7459 87.5104C33.8235 87.9695 33.7353 88.6398 34.0222 88.8627C34.309 89.0856 34.92 88.8477 35.4036 88.8129C35.3123 88.405 35.1506 87.8503 35.1626 87.397Z" fill="#F77553"/>
</svg>
