<svg width="382" height="764" viewBox="0 0 382 764" fill="none" xmlns="http://www.w3.org/2000/svg">
<path d="M58.5032 760.258C61.6612 759.607 64.869 759.228 68.0918 759.126C77.1685 759.374 86.141 757.149 94.0503 752.689C97.7097 750.703 101.536 749.042 105.486 747.725C112.716 745.234 119.518 741.642 125.652 737.074C128.493 735.068 131.442 733.149 134.148 731.04C141.832 725.037 150.642 720.638 160.055 718.103C163.394 717.21 166.696 716.058 170.03 715.144C175.436 713.803 180.222 710.654 183.594 706.218C186.857 701.68 191.306 698.13 196.454 695.957C210.241 690.169 221.7 681.587 229.254 668.274C232.183 663.461 236.695 659.817 242.015 657.97C252.244 653.971 259.205 646.279 264.161 636.923C267.496 630.033 272.451 624.055 278.601 619.502C282.609 616.672 285.629 612.655 287.239 608.017C289.383 602.103 293.13 596.904 298.06 593.002C302.248 589.314 305.494 584.677 307.526 579.477C309.803 574.499 312.249 569.483 314.695 564.467C317.476 558.06 322.052 552.597 327.871 548.739C330.258 547.292 332.262 545.29 333.712 542.903C335.163 540.516 336.016 537.814 336.202 535.026C336.975 528.805 338.918 522.786 341.927 517.29C348.353 504.991 353.188 491.962 359.349 479.478C366.678 464.588 371.83 448.543 370.898 431.317C370.687 427.852 370.876 424.375 371.46 420.953C373.879 407.292 376.449 393.647 379.172 380.02C381.327 369.116 382.69 341.311 380.975 330.239C379.156 319.269 378.507 308.137 379.038 297.03C379.108 290.093 378.642 283.161 377.643 276.296C377.145 271.459 375.834 266.673 375.652 261.853C375.63 254.188 374.007 246.612 370.885 239.612C368.651 234.472 367.994 228.785 368.996 223.272C369.715 217.019 368.76 210.687 366.228 204.924C361.218 192.684 357.428 180.032 348.636 169.677C346.469 166.962 345.075 163.712 344.603 160.269C341.723 140.253 332.54 123.475 319.086 108.784C315.518 104.489 313.248 99.2649 312.544 93.725C312.107 90.6193 311.009 87.6434 309.324 84.9988C307.639 82.3541 305.406 80.1024 302.777 78.396C295.709 73.8009 290.28 67.0783 287.274 59.1976C283.187 48.7587 275.702 40.0032 266.03 34.3469C261.176 31.472 257.573 26.8809 255.932 21.4793C255.223 19.1383 253.975 16.9965 252.288 15.2264C250.601 13.4564 248.522 12.1078 246.219 11.2891C237.855 7.943 238.615 4.63174 230.117 1.61331C226.099 0.351926 212.57 0.722356 208.717 2.42186C196.982 6.78801 185.982 12.921 176.097 20.6091C168.888 26.219 163.839 34.1513 161.806 43.0625C159.772 51.9736 160.879 61.3158 164.938 69.5067C166.969 73.132 169.487 76.461 172.422 79.4007C181.976 90.3629 191.701 101.197 201.239 112.185C203.429 114.882 205.412 117.741 207.171 120.738C208.304 122.487 208.95 124.548 210.1 126.271C216.58 136.059 225.655 144.231 229.641 155.589C233.627 166.948 240.262 176.634 246.719 186.516C249.655 191.245 251.717 196.464 252.806 201.923C254.588 208.631 256.884 215.192 259.673 221.546C266.799 239.661 272.752 258.199 272.521 278.053C272.454 282.952 272.023 288.112 274.526 292.36C280.825 303.215 278.925 315.332 280.345 326.872C280.827 330.754 279.155 335.059 277.839 338.97C275.367 345.521 275.009 352.684 276.815 359.451C279.008 366.837 278.435 374.769 275.204 381.76C270.365 391.877 268.913 403.288 271.063 414.3C271.388 416.02 271.287 417.793 270.77 419.465C270.254 421.137 269.336 422.658 268.099 423.894C261.991 430.344 259.765 438.187 259.158 446.687C258.742 452.401 255.945 457.051 253.556 462.121C247.067 475.906 238.808 488.866 233.838 503.353C231.954 509.352 228.457 514.714 223.729 518.853C218.976 522.961 215.392 528.253 213.339 534.194C212.614 536.858 211.142 539.259 209.097 541.112C203.674 544.887 200.928 550.15 198.108 555.875C192.669 566.455 184.191 575.163 173.764 580.877C166.662 585.181 160.123 590.353 154.298 596.274C144.386 605.976 133.9 615.117 123.343 624.14C119.039 627.63 114.452 630.754 109.629 633.48C103.756 637.045 97.5928 640.408 91.4884 643.736C88.4549 645.385 85.3835 647.845 82.1426 648.091C65.8804 649.558 52.3937 659.315 36.7657 662.689C28.502 664.457 21.6808 669.531 14.9607 674.56C3.23872 683.357 -0.95166 695.103 0.812789 709.33C1.73432 716.91 2.6399 724.487 3.52998 732.06C4.56971 740.944 8.55127 747.777 16.9149 751.74C20.0446 753.258 23.0042 755.105 26.003 756.832C36.2611 762.661 46.5233 766.059 58.5032 760.258ZM337.555 454.262C337.251 452.926 336.947 451.59 336.648 450.276L336.445 450.166C336.773 451.608 337.096 453.028 337.409 454.407L337.555 454.262ZM344.526 315.714L340.48 316.634L331.447 314.428C330.82 314.271 330.225 314.007 329.688 313.646C329.378 313.36 329.471 312.692 329.249 312.208C329.943 313.009 330.654 313.784 331.365 314.558L340.357 316.974L344.784 315.967L344.526 315.714ZM156.315 653.839C155.718 655.625 155.2 657.46 154.535 659.239C154.307 659.83 153.9 660.336 153.371 660.685C152.982 660.93 152.347 660.784 151.841 660.81C151.896 659.683 151.528 658.161 152.111 657.493C153.482 656.181 154.987 655.017 156.601 654.019C157.302 652.235 158.201 650.535 159.28 648.95C159.73 648.508 160.271 648.168 160.865 647.956C161.459 647.744 162.092 647.664 162.721 647.722C163.34 647.833 163.927 648.083 164.436 648.454C164.945 648.825 165.363 649.307 165.658 649.864C165.688 650.454 165.56 651.042 165.288 651.566C165.015 652.091 164.609 652.533 164.109 652.847C161.489 653.378 158.835 653.721 156.166 653.873L156.315 653.839ZM303.12 170.928C296.979 171.744 290.853 172.624 284.714 173.351C281.629 173.695 277.974 168.884 279.361 166.071C280.459 163.599 282.066 161.387 284.078 159.58C284.881 159.007 285.807 158.63 286.782 158.478C287.757 158.326 288.753 158.404 289.693 158.705C295.338 161.391 300.411 164.987 302.968 171.14C305.816 172.99 308.472 175.12 310.896 177.5C311.762 178.576 312.347 179.85 312.6 181.208C312.853 182.567 312.765 183.966 312.344 185.282C311.923 186.597 311.183 187.787 310.19 188.746C309.197 189.704 307.981 190.401 306.652 190.774C302.913 192.283 298.831 192.733 294.852 192.074C296.002 188.802 299.275 189.485 301.571 188.316C306.042 186.229 307.716 183.106 306.318 178.429C305.39 175.872 304.322 173.368 303.12 170.928ZM308.025 482.517C307.374 482.397 306.508 482.505 306.089 482.132C302.542 478.88 298.947 475.706 295.638 472.221C294.726 471.421 293.994 470.434 293.494 469.328C292.993 468.222 292.734 467.022 292.735 465.808C292.735 464.594 292.994 463.394 293.495 462.289C293.997 461.183 294.728 460.198 295.64 459.399C297.615 457.5 299.888 455.935 301.954 454.15C307.995 448.874 311.487 442.483 310.806 434.298C310.733 432.94 310.782 431.578 310.951 430.229C311.098 428.723 313.858 427.338 316.026 427.469C320.576 427.884 324.026 432.184 322.544 435.955C321.523 438.417 320.007 440.769 318.896 443.229C317.508 446.332 315.099 449.556 315.245 452.645C315.567 459.06 312.253 462.802 308.107 466.71C305.417 469.284 305.386 472.77 307.3 476.193C308.192 477.919 308.923 479.723 309.484 481.583C309.562 481.632 308.544 482.154 308.025 482.517ZM298.276 509.887L298.064 509.445C296.202 510.27 294.386 511.196 292.478 511.919C285.919 514.325 280.583 511.724 275.878 507.487C274.724 506.239 273.961 504.681 273.683 503.004C273.405 501.328 273.624 499.607 274.312 498.054C275.662 495.271 278.285 494.563 280.978 494.063C281.65 493.926 282.341 493.912 283.018 494.023C290.955 495.519 298.664 498.27 306.857 498.348C307.196 498.398 307.519 498.523 307.805 498.712C308.09 498.902 308.331 499.151 308.51 499.444C309.131 500.579 309.594 501.794 309.888 503.055C309.93 503.375 309.893 503.701 309.779 504.003C309.665 504.305 309.478 504.575 309.235 504.787C305.502 506.594 301.905 508.215 298.276 509.887ZM81.2763 705.91C81.1269 705.252 80.9391 704.425 81.0969 703.944C83.0791 699.586 85.3224 695.353 87.8152 691.266C88.7295 689.899 91.9692 688.471 93.016 689.058C99.6184 692.748 106.769 695.353 114.195 696.775C114.825 696.9 115.592 699.29 115.305 700.381C114.765 702.351 113.845 704.196 112.597 705.813C112.205 706.383 111.699 706.866 111.112 707.231C110.524 707.597 109.868 707.836 109.183 707.935C108.499 708.034 107.801 707.991 107.134 707.807C106.467 707.623 105.845 707.304 105.307 706.868C103.717 705.557 102.404 703.894 100.83 702.557C95.7286 698.342 93.2414 698.573 88.5779 703.536C87.24 705 85.9117 706.506 84.4505 707.819C84.155 708.087 83.1447 707.76 82.6035 707.437C82.0955 706.989 81.6493 706.475 81.2763 705.91ZM125.978 682.367C125.67 679.738 125.472 678.379 125.338 677.004C125.158 675.038 126.895 672.191 128.726 672.309C132.153 672.235 135.579 672.502 138.954 673.106C142.709 673.947 144.682 680.077 142.614 683.423C141.859 684.978 140.792 686.359 139.48 687.482C138.168 688.606 136.638 689.446 134.987 689.952C134.008 690.102 133.009 690.033 132.059 689.752C131.11 689.47 130.233 688.983 129.493 688.324C128.001 686.479 126.785 684.427 125.881 682.233L125.978 682.367ZM322.14 256.447C323.491 255.627 325.019 253.92 326.628 253.844C331.866 253.567 335.08 257.609 338.733 260.547C339.168 260.894 339.528 262.083 339.289 262.405C338.601 263.512 337.613 264.401 336.442 264.97C330.193 266.881 325.977 263.915 322.609 259.195C322.22 258.659 322.303 257.748 322.14 256.447ZM329.967 394.73C329.28 392.745 328.813 390.69 328.574 388.603C328.691 387.55 329.671 386.569 330.246 385.569C331.312 386.241 332.725 386.678 333.369 387.646C334.155 388.758 334.595 390.078 334.633 391.44C334.614 392.765 334.275 394.066 333.646 395.232C332.85 396.729 330.059 395.133 329.937 394.693L329.967 394.73ZM251.285 87.8508L248.969 87.4631C249.788 84.8909 250.56 82.3071 251.473 79.7581C252.1 78.0099 253.21 77.6015 254.377 78.7187C254.563 79.0067 254.678 79.3344 254.713 79.6752C254.748 80.0161 254.702 80.3603 254.578 80.6799C253.526 83.1045 252.357 85.5109 251.318 87.7987L251.285 87.8508ZM320.937 236.161C320.163 235.111 319.463 234.578 319.448 234.024C319.481 233.695 319.596 233.379 319.783 233.106C319.97 232.834 320.224 232.613 320.519 232.465C322.527 232.11 324.559 231.909 326.598 231.863C327.088 231.864 328.075 232.776 328.013 232.991C327.639 234.191 327.166 236.127 326.42 236.275C324.604 236.465 322.771 236.409 320.969 236.109L320.937 236.161ZM257.73 559.646C257.376 559.279 257.112 558.836 256.957 558.351C256.801 557.865 256.76 557.351 256.834 556.847C256.909 556.343 257.099 555.863 257.388 555.444C257.678 555.025 258.06 554.678 258.505 554.43C258.806 554.311 259.129 554.255 259.454 554.265C259.778 554.276 260.097 554.353 260.39 554.492C262.238 555.566 262.974 558.9 261.566 559.666C260.539 560.145 259.042 559.638 257.763 559.594L257.73 559.646ZM55.4072 702.158C56.3558 702.901 57.9351 703.479 58.152 704.433C58.5954 705.893 57.2784 706.861 55.6693 706.447C54.5956 706.133 53.1752 705.274 52.9679 704.363C52.5457 702.898 53.8022 702.055 55.44 702.106L55.4072 702.158ZM332.337 353.027C332.658 353.015 332.977 353.079 333.268 353.215C333.559 353.35 333.814 353.553 334.011 353.807C334.208 354.061 334.342 354.358 334.402 354.674C334.461 354.99 334.444 355.315 334.353 355.624C334.245 355.902 334.067 356.149 333.839 356.342C333.61 356.534 333.337 356.665 333.044 356.724C332.725 356.769 332.4 356.731 332.099 356.615C331.799 356.499 331.533 356.307 331.327 356.059C331.121 355.811 330.981 355.515 330.922 355.198C330.863 354.881 330.886 354.554 330.988 354.248C331.082 353.781 331.875 353.444 332.337 353.027ZM336.52 413.065C335.044 412.062 335.085 411.161 336.8 410.771C337.012 410.723 337.473 411.577 337.843 412.028L336.52 413.065ZM196.017 652.394C196.119 651.769 196.244 651.139 196.368 650.508C196.985 650.565 197.588 650.73 198.149 650.995C198.664 651.383 199.027 651.94 199.175 652.568C199.3 653.119 199.051 654.18 198.738 654.273C197.299 654.801 196.35 654.058 196.099 652.465L196.017 652.394ZM297.535 541.899C297.657 541.359 297.608 540.656 297.946 540.379C298.284 540.101 298.91 540.405 299.431 540.442C299.304 540.962 299.352 541.665 299.019 541.963C298.686 542.262 297.969 542.046 297.554 541.984L297.535 541.899ZM267.607 151.997C267.068 152.243 266.484 152.376 265.892 152.387C265.659 152.44 265.543 151.441 265.38 150.92C265.919 150.674 266.503 150.542 267.096 150.53C267.36 150.715 267.463 151.561 267.626 152.082L267.607 151.997Z" fill="#F8C800" fill-opacity="0.7"/>
</svg>
