<svg width="77" height="72" viewBox="0 0 77 72" fill="none" xmlns="http://www.w3.org/2000/svg">
<path d="M1.77137 30.1751C2.86068 25.2902 5.32985 20.8208 8.88469 17.2996C13.7983 12.332 18.3188 6.90369 24.7853 3.78996C32.3882 0.108418 39.9641 -0.64027 47.772 3.16426C51.3534 4.91547 55.1621 6.17841 58.6972 7.98184C62.2324 9.7907 65.6673 11.7896 68.9866 13.9698C70.2329 14.8041 71.2549 15.9322 71.963 17.2551C75.5833 24.0408 77.7206 31.3016 75.0928 38.8202C72.021 47.8103 67.4345 56.2086 61.5323 63.6512C59.3789 66.4595 56.2625 68.3698 52.7851 69.0131C46.8951 70.0358 40.9816 70.9068 35.0677 71.7777C29.5868 72.3561 24.0484 71.5767 18.9407 69.5082C15.6057 68.3964 12.7792 66.1261 10.9728 63.1083C8.42541 58.8233 6.08799 54.4168 3.46018 50.1909C1.81191 47.6787 0.742313 44.831 0.328797 41.8536C-0.0847127 38.8763 0.168431 35.8438 1.06944 32.9756C1.26145 32.1386 1.50482 31.1699 1.77137 30.1751Z" fill="#9CF17B"/>
</svg>
